<svg xmlns="http://www.w3.org/2000/svg" width="51.989" height="56.716" viewBox="0 0 51.989 56.716">
  <g id="add-user" transform="translate(0)">
    <path id="Path_976" data-name="Path 976" d="M48.659,27.413A13.706,13.706,0,1,0,34.953,13.706,13.706,13.706,0,0,0,48.659,27.413Zm6.493-8.266c-.624,2.062-3.294,3.611-6.5,3.611s-5.872-1.55-6.5-3.611ZM77.489,47.263v1.891a.945.945,0,0,1-.945.945H70.873v5.672a.945.945,0,0,1-.945.945H68.037a.945.945,0,0,1-.945-.945V50.1H61.42a.945.945,0,0,1-.945-.945V47.263a.945.945,0,0,1,.945-.945h5.672V40.646a.945.945,0,0,1,.945-.945h1.891a.945.945,0,0,1,.945.945v5.672h5.672A.945.945,0,0,1,77.489,47.263Zm-18.905,0v1.891a2.8,2.8,0,0,0,.372,1.377,95.371,95.371,0,0,1-10.3.514c-13.216,0-19.683-2.159-22.054-3.214a2.046,2.046,0,0,1-1.1-1.72V41.592A13.274,13.274,0,0,1,37.232,28.452a1.1,1.1,0,0,1,.659.181,18.288,18.288,0,0,0,21.535,0,1.1,1.1,0,0,1,.659-.181,13.294,13.294,0,0,1,11.282,9.765,2.8,2.8,0,0,0-1.441-.407H68.037A2.839,2.839,0,0,0,65.2,40.646v3.781H61.42A2.839,2.839,0,0,0,58.584,47.263Z" transform="translate(-25.5)" fill="#5b215b"/>
  </g>
</svg>
