<svg xmlns="http://www.w3.org/2000/svg" width="92" height="118.099" viewBox="0 0 92 118.099">
  <g id="assigned-task" transform="translate(-60 -171.901)">
    <rect id="Rectangle_1" data-name="Rectangle 1" width="92" height="117" rx="10" transform="translate(60 173)" fill="#5b215b"/>
    <g id="next" transform="matrix(0.819, 0.574, -0.574, 0.819, 97.467, 174.018)">
      <path id="Path_9" data-name="Path 9" d="M49.287,18.434,27.3.313a1.371,1.371,0,0,0-2.245,1.061v9.55c-10.673.388-18.009,4.153-21.825,11.2C-.055,28.209-.025,35.412.006,40.177v1.1a1.384,1.384,0,0,0,1.031,1.337,1.343,1.343,0,0,0,.347.041,1.359,1.359,0,0,0,1.194-.694C10.025,28.831,16.157,28.2,25.044,28.168v9.52a1.368,1.368,0,0,0,.8,1.245,1.4,1.4,0,0,0,1.469-.184L49.287,20.566a1.387,1.387,0,0,0,.5-1.061A1.408,1.408,0,0,0,49.287,18.434ZM27.81,34.759V26.79a1.334,1.334,0,0,0-.408-.969,1.394,1.394,0,0,0-.969-.408c-5.551,0-9.805.153-13.938,2.081-3.571,1.663-6.663,4.489-9.713,8.928.122-4.051.653-8.887,2.867-12.978,3.51-6.489,10.305-9.7,20.784-9.8A1.383,1.383,0,0,0,27.8,12.271V4.292L46.236,19.505Z" transform="translate(0 0)" fill="#fff" stroke="#fff" stroke-width="3"/>
    </g>
    <g id="list" transform="translate(0 16)">
      <line id="Line_1" data-name="Line 1" x2="52.118" transform="translate(79.528 227.5)" fill="none" stroke="#fff" stroke-linecap="round" stroke-width="4"/>
      <line id="Line_2" data-name="Line 2" x2="52.118" transform="translate(79.528 242.5)" fill="none" stroke="#fff" stroke-linecap="round" stroke-width="4"/>
      <line id="Line_4" data-name="Line 4" x2="52.118" transform="translate(79.528 257.5)" fill="none" stroke="#fff" stroke-linecap="round" stroke-width="4"/>
    </g>
  </g>
</svg>
