<svg xmlns="http://www.w3.org/2000/svg" width="41.502" height="52.651" viewBox="0 0 41.502 52.651">
  <g id="report" transform="translate(0)">
    <path id="Path_985" data-name="Path 985" d="M124.891,322.773h2v4.261h-2Zm0,0" transform="translate(-108.774 -281.12)" fill="#5b215b"/>
    <path id="Path_986" data-name="Path 986" d="M237.52,251.387h2V264.86h-2Zm0,0" transform="translate(-206.868 -218.946)" fill="#5b215b"/>
    <path id="Path_987" data-name="Path 987" d="M181.207,286.605h2v8.928h-2Zm0,0" transform="translate(-157.823 -249.62)" fill="#5b215b"/>
    <path id="Path_988" data-name="Path 988" d="M69.26,234.655a1.23,1.23,0,1,1-1.23-1.229A1.23,1.23,0,0,1,69.26,234.655Zm0,0" transform="translate(-58.18 -203.303)" fill="#5b215b"/>
    <path id="Path_989" data-name="Path 989" d="M68.578,290.941h2v8.369h-2Zm0,0" transform="translate(-59.728 -253.396)" fill="#5b215b"/>
    <path id="Path_990" data-name="Path 990" d="M74.711,0H98.319V3.227H74.711Zm0,0" transform="translate(-65.07)" fill="#5b215b"/>
    <path id="Path_991" data-name="Path 991" d="M53.187,103.285H64.3v5.395H53.187Zm0,0" transform="translate(-46.324 -89.956)" fill="#5b215b"/>
    <path id="Path_992" data-name="Path 992" d="M236.972,194.207a1.23,1.23,0,1,0,1.23,1.229A1.229,1.229,0,0,0,236.972,194.207Zm0,0" transform="translate(-205.32 -169.145)" fill="#5b215b"/>
    <path id="Path_993" data-name="Path 993" d="M181.889,230.8a1.229,1.229,0,1,1-1.229-1.23A1.229,1.229,0,0,1,181.889,230.8Zm0,0" transform="translate(-156.275 -199.941)" fill="#5b215b"/>
    <path id="Path_994" data-name="Path 994" d="M41.5,67.911V21.824a2.006,2.006,0,0,0-2-2H34.8v1.444a.774.774,0,0,1-.774.774H8.867a.774.774,0,0,1-.774-.774V19.82H2a2.006,2.006,0,0,0-2,2V67.911a2.006,2.006,0,0,0,2,2H39.5A2.006,2.006,0,0,0,41.5,67.911ZM25.378,29.043h.49a.774.774,0,1,1,0,1.549h-.49a.774.774,0,1,1,0-1.549Zm0,6.943h5.906a.774.774,0,1,1,0,1.549H25.378a.774.774,0,1,1,0-1.549Zm-1.985,7.227a.774.774,0,0,1-.774.774H13.5a.774.774,0,1,1,0-1.549H22.62A.774.774,0,0,1,23.394,43.213ZM5.315,29.817a.774.774,0,0,1,.774-.774H18.748a.774.774,0,0,1,.774.774V36.76a.774.774,0,0,1-.774.774H6.089a.774.774,0,0,1-.774-.774Zm6.124,13.4a.774.774,0,0,1-.774.774H9.647a.774.774,0,1,1,0-1.549h1.018A.774.774,0,0,1,11.439,43.213Zm-5.35.774a.774.774,0,1,1,0-1.549h.772a.774.774,0,1,1,0,1.549ZM12.4,63.95a.774.774,0,0,1-.774.774H8.076A.774.774,0,0,1,7.3,63.95V54.033a.774.774,0,0,1,.774-.774h3.549a.774.774,0,0,1,.774.774Zm7.267,0a.774.774,0,0,1-.774.774H15.343a.774.774,0,0,1-.774-.774v-5.81a.774.774,0,0,1,.774-.774h3.549a.774.774,0,0,1,.774.774Zm7.267,0a.774.774,0,0,1-.774.774H22.61a.774.774,0,0,1-.774-.774V53.474a.774.774,0,0,1,.774-.774h3.549a.774.774,0,0,1,.774.774Zm7.267,0a.774.774,0,0,1-.774.774H29.877a.774.774,0,0,1-.774-.774V48.929a.774.774,0,0,1,.774-.774h3.549a.774.774,0,0,1,.774.774ZM31.651,46.332a2.775,2.775,0,0,1-2.243-1.146l-2.357,2.16a2.776,2.776,0,0,1-4.439,2.909l-2.726,2.3c0,.062.009.124.009.187a2.778,2.778,0,1,1-5.512-.482l-2.509-1.747a2.8,2.8,0,1,1,.706-1.4l2.5,1.741a2.767,2.767,0,0,1,4.217.168l2.442-2.06A2.775,2.775,0,0,1,26.2,46.023l2.67-2.448c0-.007,0-.014,0-.021a2.778,2.778,0,1,1,2.778,2.778Zm3.761-8.8h-.538a.774.774,0,0,1,0-1.549h.538a.774.774,0,0,1,0,1.549Zm0-6.943H29.459a.774.774,0,1,1,0-1.549h5.954a.774.774,0,0,1,0,1.549Zm0,0" transform="translate(0 -17.263)" fill="#5b215b"/>
    <path id="Path_995" data-name="Path 995" d="M125.573,266.632a1.23,1.23,0,1,1-1.229-1.23A1.229,1.229,0,0,1,125.573,266.632Zm0,0" transform="translate(-107.226 -231.153)" fill="#5b215b"/>
  </g>
</svg>
