<svg xmlns="http://www.w3.org/2000/svg" width="53.924" height="55.425" viewBox="0 0 53.924 55.425">
  <g id="user-permissions" transform="translate(0 0)">
    <path id="Path_977" data-name="Path 977" d="M30.33,26.1A13.049,13.049,0,1,0,17.281,13.049,13.049,13.049,0,0,0,30.33,26.1Zm6.1-7.86c-.594,1.963-3.136,3.438-6.184,3.438s-5.59-1.475-6.184-3.438ZM62.206,38.605c-.28,7.73-3.423,14.373-10.763,16.82-7.34-2.447-10.483-9.09-10.763-16.82a1.031,1.031,0,0,1,1.079-1.065A12.912,12.912,0,0,0,50.8,34.413a1.008,1.008,0,0,1,1.279,0,12.912,12.912,0,0,0,9.045,3.126A1.031,1.031,0,0,1,62.206,38.605Zm-23.774.081a25.654,25.654,0,0,0,1.984,9.39A90.129,90.129,0,0,1,30.33,48.6c-12.582,0-18.739-2.056-21-3.06A1.948,1.948,0,0,1,8.282,43.9V39.6A12.637,12.637,0,0,1,19.451,27.087a1.044,1.044,0,0,1,.628.172,17.411,17.411,0,0,0,20.5,0,1.044,1.044,0,0,1,.628-.172,12.629,12.629,0,0,1,8.8,5.194,3.206,3.206,0,0,0-.636.4A10.657,10.657,0,0,1,42.359,35.3c-.167,0-.335,0-.506-.011l-.14,0a3.28,3.28,0,0,0-3.282,3.4Z" transform="translate(-8.282)" fill="#5b215b"/>
  </g>
</svg>
