<svg xmlns="http://www.w3.org/2000/svg" width="19.484" height="19.927" viewBox="0 0 19.484 19.927">
  <g id="calendar_2_" data-name="calendar (2)" transform="translate(0 0)">
    <g id="Group_380" data-name="Group 380">
      <path id="Path_901" data-name="Path 901" d="M119.518,258.694a.452.452,0,0,0-.452-.452h-1.578a.452.452,0,0,0-.452.452v1.578a.452.452,0,0,0,.452.452h1.578a.452.452,0,0,0,.452-.452v-1.578Z" transform="translate(-112.478 -247.701)" fill="#5b215b"/>
      <path id="Path_902" data-name="Path 902" d="M216.152,258.694a.452.452,0,0,0-.452-.452h-1.579a.452.452,0,0,0-.452.452v1.578a.452.452,0,0,0,.452.452H215.7a.452.452,0,0,0,.452-.452Z" transform="translate(-205.169 -247.701)" fill="#5b215b"/>
      <path id="Path_903" data-name="Path 903" d="M312.781,258.694a.452.452,0,0,0-.452-.452H310.75a.452.452,0,0,0-.452.452v1.578a.452.452,0,0,0,.452.452h1.578a.452.452,0,0,0,.452-.452Z" transform="translate(-297.852 -247.701)" fill="#5b215b"/>
      <path id="Path_904" data-name="Path 904" d="M119.518,355.327a.452.452,0,0,0-.452-.452h-1.578a.452.452,0,0,0-.452.452V356.9a.452.452,0,0,0,.452.452h1.578a.452.452,0,0,0,.452-.452v-1.578Z" transform="translate(-112.478 -340.389)" fill="#5b215b"/>
      <path id="Path_905" data-name="Path 905" d="M216.152,355.327a.452.452,0,0,0-.452-.452h-1.579a.452.452,0,0,0-.452.452V356.9a.452.452,0,0,0,.452.452H215.7a.452.452,0,0,0,.452-.452Z" transform="translate(-205.169 -340.389)" fill="#5b215b"/>
      <path id="Path_906" data-name="Path 906" d="M312.781,355.327a.452.452,0,0,0-.452-.452H310.75a.452.452,0,0,0-.452.452V356.9a.452.452,0,0,0,.452.452h1.579a.452.452,0,0,0,.452-.452v-1.578Z" transform="translate(-297.852 -340.389)" fill="#5b215b"/>
      <path id="Path_907" data-name="Path 907" d="M23.161,54.151v2.41a1.969,1.969,0,0,1-1.973,1.967H19.943a1.979,1.979,0,0,1-1.985-1.967V54.142h-5.61v2.419a1.979,1.979,0,0,1-1.985,1.967H9.118a1.969,1.969,0,0,1-1.973-1.967v-2.41a1.794,1.794,0,0,0-1.734,1.785V70.062a1.8,1.8,0,0,0,1.786,1.8H23.11a1.8,1.8,0,0,0,1.786-1.8V55.935A1.794,1.794,0,0,0,23.161,54.151Zm-.578,15.031a.772.772,0,0,1-.772.772H8.462a.772.772,0,0,1-.772-.772v-7.3a.772.772,0,0,1,.772-.772H21.811a.772.772,0,0,1,.772.772v7.3Z" transform="translate(-5.411 -51.932)" fill="#5b215b"/>
      <path id="Path_908" data-name="Path 908" d="M80.227,5.3h1.231a.676.676,0,0,0,.677-.676V.677A.677.677,0,0,0,81.458,0H80.227a.677.677,0,0,0-.677.677V4.628A.676.676,0,0,0,80.227,5.3Z" transform="translate(-76.524)" fill="#5b215b"/>
      <path id="Path_909" data-name="Path 909" d="M345.135,5.3h1.231a.676.676,0,0,0,.676-.676V.677A.676.676,0,0,0,346.366,0h-1.231a.677.677,0,0,0-.677.677V4.628A.676.676,0,0,0,345.135,5.3Z" transform="translate(-330.618)" fill="#5b215b"/>
    </g>
  </g>
</svg>
