<svg xmlns="http://www.w3.org/2000/svg" width="23.702" height="21.806" viewBox="0 0 23.702 21.806">
  <g id="comment" transform="translate(0 1.332)">
    <path id="Path_895" data-name="Path 895" d="M20.443-1.332H3.259A3.262,3.262,0,0,0,0,1.927V12.443A3.262,3.262,0,0,0,3.247,15.7v4.772L10.105,15.7H20.443A3.262,3.262,0,0,0,23.7,12.443V1.927A3.262,3.262,0,0,0,20.443-1.332Zm1.87,13.775a1.872,1.872,0,0,1-1.87,1.87H9.67l-5.034,3.5v-3.5H3.259a1.872,1.872,0,0,1-1.87-1.87V1.927A1.872,1.872,0,0,1,3.259.057H20.443a1.872,1.872,0,0,1,1.87,1.87Zm0,0" fill="#5b215b"/>
    <path id="Path_896" data-name="Path 896" d="M171.293,131.172h11.015v1.389H171.293Zm0,0" transform="translate(-164.949 -127.597)" fill="#5b215b"/>
    <path id="Path_897" data-name="Path 897" d="M171.293,211.172h11.015v1.389H171.293Zm0,0" transform="translate(-164.949 -204.634)" fill="#5b215b"/>
    <path id="Path_898" data-name="Path 898" d="M171.293,291.172h11.015v1.389H171.293Zm0,0" transform="translate(-164.949 -281.671)" fill="#5b215b"/>
  </g>
</svg>
