<svg xmlns="http://www.w3.org/2000/svg" width="12.403" height="12.404" viewBox="0 0 12.403 12.404">
  <g id="close" transform="translate(0 0)">
    <g id="Group_372" data-name="Group 372" transform="translate(0)">
      <g id="Group_371" data-name="Group 371">
        <path id="Path_840" data-name="Path 840" d="M12.257.147a.5.5,0,0,0-.709,0l-11.4,11.4a.5.5,0,1,0,.709.709l11.4-11.4A.5.5,0,0,0,12.257.147Z" transform="translate(0 0)" fill="#c83b00"/>
      </g>
    </g>
    <g id="Group_374" data-name="Group 374" transform="translate(0 0)">
      <g id="Group_373" data-name="Group 373" transform="translate(0 0)">
        <path id="Path_841" data-name="Path 841" d="M12.257,11.55.856.148A.5.5,0,0,0,.147.857l11.4,11.4a.5.5,0,1,0,.709-.709Z" transform="translate(0 -0.001)" fill="#c83b00"/>
      </g>
    </g>
  </g>
</svg>
