<svg xmlns="http://www.w3.org/2000/svg" width="12.035" height="17.183" viewBox="0 0 12.035 17.183">
  <g id="location" transform="translate(0 0)">
    <path id="Path_822" data-name="Path 822" d="M22.754,12a2.2,2.2,0,1,0,2.2,2.2A2.2,2.2,0,0,0,22.754,12Zm0,3.766A1.569,1.569,0,1,1,24.323,14.2,1.571,1.571,0,0,1,22.754,15.766Z" transform="translate(-16.68 -8.234)"/>
    <path id="Path_823" data-name="Path 823" d="M18.476,1.763a6.018,6.018,0,0,0-8.51,0A6.854,6.854,0,0,0,9.4,10.22l4.821,6.963,4.814-6.953A6.857,6.857,0,0,0,18.476,1.763Zm.05,8.1L14.22,16.08,9.909,9.853a6.193,6.193,0,0,1,.5-7.647,5.39,5.39,0,0,1,7.623,0A6.2,6.2,0,0,1,18.526,9.863Z" transform="translate(-8.203 0)"/>
  </g>
</svg>
