<svg xmlns="http://www.w3.org/2000/svg" width="27.13" height="32" viewBox="0 0 27.13 32">
  <g id="notification_2_" data-name="notification (2)" transform="translate(-38.957)">
    <g id="Group_419" data-name="Group 419" transform="translate(38.957)">
      <g id="Group_418" data-name="Group 418">
        <path id="Path_996" data-name="Path 996" d="M64,21.745V15.652A11.5,11.5,0,0,0,55.326,4.521a3.13,3.13,0,1,0-5.607,0,11.5,11.5,0,0,0-8.675,11.131v6.093a3.13,3.13,0,0,0,1.043,6.081H47.41a5.218,5.218,0,0,0,10.225,0h5.322A3.13,3.13,0,0,0,64,21.745ZM52.522,2.087A1.043,1.043,0,1,1,51.479,3.13,1.045,1.045,0,0,1,52.522,2.087Zm0,27.826a3.141,3.141,0,0,1-2.951-2.094h5.9A3.142,3.142,0,0,1,52.522,29.913Zm10.435-4.174H42.087a1.043,1.043,0,1,1,0-2.087h2.087a1.043,1.043,0,0,0,0-2.087H43.131V15.652a9.391,9.391,0,0,1,18.783,0v5.913H60.869a1.043,1.043,0,0,0,0,2.087h2.088a1.043,1.043,0,0,1,0,2.087Z" transform="translate(-38.957)" fill="rgba(0,0,0,0.4)"/>
      </g>
    </g>
    <g id="Group_421" data-name="Group 421" transform="translate(45.218 8.348)">
      <g id="Group_420" data-name="Group 420">
        <path id="Path_997" data-name="Path 997" d="M146.434,133.565a7.313,7.313,0,0,0-7.3,7.3,1.044,1.044,0,1,0,2.087,0,5.223,5.223,0,0,1,5.217-5.217,1.043,1.043,0,0,0,0-2.087Z" transform="translate(-139.13 -133.565)" fill="rgba(0,0,0,0.4)"/>
      </g>
    </g>
  </g>
</svg>
