<svg xmlns="http://www.w3.org/2000/svg" width="33.031" height="31.616" viewBox="0 0 33.031 31.616">
  <g id="announcement" transform="translate(-40.748 -466.999)">
    <path id="Path_11" data-name="Path 11" d="M114.324,495.659s-.009.442,0,.439c-4.615,1.381-6.49,2.182-8.141,3.272-1.142.744-2.73,2-2.73,2" transform="translate(-49.942 -9.199)" fill="none" stroke="#707070" stroke-width="1"/>
    <path id="Path_16" data-name="Path 16" d="M115.2,495.88a38.715,38.715,0,0,0-9.211,4.565,14.169,14.169,0,0,0-2.284,1.961c-.1.072.276-.319.276-.319" transform="matrix(-0.891, 0.454, -0.454, -0.891, 374.795, 874.14)" fill="none" stroke="#707070" stroke-width="1"/>
    <g id="Ellipse_19" data-name="Ellipse 19" transform="translate(50.397 474.221) rotate(-37)" fill="none" stroke="#707070" stroke-width="1">
      <ellipse cx="6" cy="10" rx="6" ry="10" stroke="none"/>
      <ellipse cx="6" cy="10" rx="5.5" ry="9.5" fill="none"/>
    </g>
    <path id="Path_12" data-name="Path 12" d="M113.949,476.643l3.031-3.746" transform="matrix(0.985, -0.174, 0.174, 0.985, -131.419, 23.05)" fill="none" stroke="#707070" stroke-linecap="round" stroke-width="1"/>
    <path id="Path_13" data-name="Path 13" d="M116.4,479.826l3.056-4.374" transform="translate(68.23 -19.306) rotate(14)" fill="none" stroke="#707070" stroke-linecap="round" stroke-width="1"/>
    <path id="Path_14" data-name="Path 14" d="M119,484.976l2.6-4.52" transform="translate(271.447 21.303) rotate(38)" fill="none" stroke="#707070" stroke-linecap="round" stroke-width="1"/>
    <g id="Rectangle_19" data-name="Rectangle 19" transform="matrix(0.719, -0.695, 0.695, 0.719, 40.748, 489.95)" fill="none" stroke="#707070" stroke-linecap="round" stroke-linejoin="round" stroke-width="1">
      <path d="M5.5,0H9A0,0,0,0,1,9,0V11a0,0,0,0,1,0,0H5.5A5.5,5.5,0,0,1,0,5.5v0A5.5,5.5,0,0,1,5.5,0Z" stroke="none"/>
      <path d="M5.5.5H8.167A.333.333,0,0,1,8.5.833v9.333a.333.333,0,0,1-.333.333H5.5a5,5,0,0,1-5-5v0a5,5,0,0,1,5-5Z" fill="none"/>
    </g>
    <g id="Rectangle_20" data-name="Rectangle 20" transform="translate(52.212 492.835) rotate(-40)" fill="none" stroke="#707070" stroke-linecap="round" stroke-width="1">
      <rect width="5" height="5" rx="1" stroke="none"/>
      <rect x="0.5" y="0.5" width="4" height="4" rx="0.5" fill="none"/>
    </g>
    <g id="Rectangle_21" data-name="Rectangle 21" transform="translate(55.754 495.507) rotate(-39)" fill="none" stroke="#707070" stroke-linecap="round" stroke-linejoin="round" stroke-width="1">
      <path d="M0,0H3A0,0,0,0,1,3,0V2.5A1.5,1.5,0,0,1,1.5,4h0A1.5,1.5,0,0,1,0,2.5V0A0,0,0,0,1,0,0Z" stroke="none"/>
      <path d="M.833.5H2.167A.333.333,0,0,1,2.5.833V2.5a1,1,0,0,1-1,1h0a1,1,0,0,1-1-1V.833A.333.333,0,0,1,.833.5Z" fill="none"/>
    </g>
    <g id="Ellipse_20" data-name="Ellipse 20" transform="matrix(0.809, -0.588, 0.588, 0.809, 57.619, 477.749)" fill="none" stroke="#707070" stroke-width="1">
      <ellipse cx="2" cy="3" rx="2" ry="3" stroke="none"/>
      <ellipse cx="2" cy="3" rx="1.5" ry="2.5" fill="none"/>
    </g>
    <path id="Path_17" data-name="Path 17" d="M59.331,477.166l-3.76,2.391" fill="none" stroke="#707070" stroke-width="1"/>
    <path id="Path_18" data-name="Path 18" d="M62.534,480.962c-.021-.03-3.612,2.83-3.612,2.83S62.555,480.992,62.534,480.962Z" fill="none" stroke="#707070" stroke-width="1"/>
    <path id="Path_19" data-name="Path 19" d="M68.125,480.472l5.08-.835" transform="translate(0 -1)" fill="none" stroke="#707070" stroke-linecap="round" stroke-width="1"/>
  </g>
</svg>
