<svg xmlns="http://www.w3.org/2000/svg" width="32" height="32" viewBox="0 0 32 32">
  <g id="chat" transform="translate(-87 -132)">
    <g id="Ellipse_4" data-name="Ellipse 4" transform="translate(87 136)" fill="none" stroke="#707070" stroke-width="1">
      <circle cx="5" cy="5" r="5" stroke="none"/>
      <circle cx="5" cy="5" r="4.5" fill="none"/>
    </g>
    <g id="Ellipse_5" data-name="Ellipse 5" transform="translate(103 132)" fill="none" stroke="#707070" stroke-width="1">
      <circle cx="3" cy="3" r="3" stroke="none"/>
      <circle cx="3" cy="3" r="2.5" fill="none"/>
    </g>
    <g id="Ellipse_6" data-name="Ellipse 6" transform="translate(91 153)" fill="none" stroke="#707070" stroke-width="1">
      <circle cx="4" cy="4" r="4" stroke="none"/>
      <circle cx="4" cy="4" r="3.5" fill="none"/>
    </g>
    <g id="Ellipse_7" data-name="Ellipse 7" transform="translate(107 157)" fill="none" stroke="#707070" stroke-width="1">
      <circle cx="3.5" cy="3.5" r="3.5" stroke="none"/>
      <circle cx="3.5" cy="3.5" r="3" fill="none"/>
    </g>
    <g id="Ellipse_8" data-name="Ellipse 8" transform="translate(100 144)" fill="none" stroke="#707070" stroke-width="1">
      <circle cx="3.5" cy="3.5" r="3.5" stroke="none"/>
      <circle cx="3.5" cy="3.5" r="3" fill="none"/>
    </g>
    <g id="Ellipse_9" data-name="Ellipse 9" transform="translate(111 140)" fill="none" stroke="#707070" stroke-width="1">
      <circle cx="4" cy="4" r="4" stroke="none"/>
      <circle cx="4" cy="4" r="3.5" fill="none"/>
    </g>
    <line id="Line_27" data-name="Line 27" x2="5" y2="3" transform="translate(95.5 143.5)" fill="none" stroke="#707070" stroke-width="1"/>
    <line id="Line_28" data-name="Line 28" x1="4" y2="5" transform="translate(97.5 149.5)" fill="none" stroke="#707070" stroke-width="1"/>
    <line id="Line_29" data-name="Line 29" x2="4" y2="8" transform="translate(105.5 149.5)" fill="none" stroke="#707070" stroke-width="1"/>
    <line id="Line_30" data-name="Line 30" y1="1" x2="5" transform="translate(106.5 145.5)" fill="none" stroke="#707070" stroke-width="1"/>
    <line id="Line_31" data-name="Line 31" y1="7" x2="1" transform="translate(104.5 137.5)" fill="none" stroke="#707070" stroke-width="1"/>
  </g>
</svg>
