<svg id="policy-active" xmlns="http://www.w3.org/2000/svg" width="30.057" height="26.947" viewBox="0 0 30.057 26.947">
  <path id="Path_20" data-name="Path 20" d="M16.583,333.066V331H0v2.075a3.423,3.423,0,0,0,3.4,3.431H18.254c-.142-.13-.28-.243-.41-.373A4.323,4.323,0,0,1,16.583,333.066Zm0,0" transform="translate(0 -309.559)" fill="#5b215b"/>
  <path id="Path_21" data-name="Path 21" d="M164.183,61.83l2.406,1.652L169,61.83a3.06,3.06,0,0,0,1.185-2.267V56.149l-3.6-1.778L163,56.145v3.419A3.057,3.057,0,0,0,164.183,61.83Zm.542-3.227a.453.453,0,0,1,.641,0l.723.73,1.739-1.739a.454.454,0,1,1,.641.642L166.407,60.3a.456.456,0,0,1-.321.134h0a.453.453,0,0,1-.321-.136l-1.044-1.054A.455.455,0,0,1,164.724,58.6Zm0,0" transform="translate(-152.441 -50.849)" fill="#5b215b"/>
  <path id="Path_22" data-name="Path 22" d="M391.455,0h-.014A2.465,2.465,0,0,0,389,2.446V6.607h4.858V2.438A2.427,2.427,0,0,0,391.455,0Zm0,0" transform="translate(-363.802)" fill="#5b215b"/>
  <path id="Path_23" data-name="Path 23" d="M72.544,0a2.272,2.272,0,0,0-2.285,2.253l-.134,18.282H82.619a.472.472,0,0,1,.453.475v2.5a3.432,3.432,0,0,0,3.407,3.44h.011a3.408,3.408,0,0,0,3.383-3.432V2.447A3.472,3.472,0,0,1,90.947,0Zm2.69,5.013a.441.441,0,0,1,.24-.407l4.061-2a.446.446,0,0,1,.4,0l4.068,2a.441.441,0,0,1,.24.407v3.7a3.952,3.952,0,0,1-1.58,3.016l-2.664,1.827a.448.448,0,0,1-.254.079.441.441,0,0,1-.253-.079l-2.672-1.827a3.956,3.956,0,0,1-1.581-3.016ZM86.182,18.462H73.744a.453.453,0,0,1,0-.907H86.182a.453.453,0,1,1,0,.907Zm0-2.4H73.744a.453.453,0,0,1,0-.907H86.182a.453.453,0,1,1,0,.907Zm0,0" transform="translate(-65.582)" fill="#5b215b"/>
</svg>
