<svg id="policy" xmlns="http://www.w3.org/2000/svg" width="32" height="28.891" viewBox="0 0 32 28.891">
  <path id="Path_24" data-name="Path 24" d="M28.626,0H7.933A3.244,3.244,0,0,0,4.676,3.221L4.543,21.441H.5a.525.525,0,0,0-.5.539v2.508a4.394,4.394,0,0,0,4.146,4.372v.03H21.571v-.034c.13.005.208.034.3.034h.012a4.38,4.38,0,0,0,4.355-4.4V8.551H31.5a.531.531,0,0,0,.5-.545V3.4A3.4,3.4,0,0,0,28.626,0ZM4.372,27.854h0a3.358,3.358,0,0,1-3.332-3.367v-2.01H17.49v2a4.386,4.386,0,0,0,1.28,3.112,1.861,1.861,0,0,1,.273.263ZM25.2,24.487a3.346,3.346,0,0,1-3.319,3.367h-.011a3.367,3.367,0,0,1-3.343-3.375v-2.5a.537.537,0,0,0-.518-.539H5.579L5.713,3.224a2.207,2.207,0,0,1,2.22-2.188H26.179A3.536,3.536,0,0,0,25.2,3.419ZM30.964,3.414v4.1H26.235v-4.1A2.4,2.4,0,0,1,28.61,1.036h.014A2.362,2.362,0,0,1,30.964,3.41Zm0,0" transform="translate(0)" fill="#757575"/>
  <path id="Path_25" data-name="Path 25" d="M164.607,62.859l2.672,1.827a.51.51,0,0,0,.579,0l2.664-1.826a4.025,4.025,0,0,0,1.609-3.07v-3.7a.507.507,0,0,0-.276-.465l-4.068-2a.509.509,0,0,0-.453,0l-4.06,2a.506.506,0,0,0-.276.465v3.7A4.025,4.025,0,0,0,164.607,62.859Zm-.574-6.448,3.53-1.742,3.53,1.747V59.79A2.986,2.986,0,0,1,169.937,62l-2.379,1.627L165.188,62a2.985,2.985,0,0,1-1.154-2.214Zm0,0" transform="translate(-152.438 -50.104)" fill="#757575"/>
  <path id="Path_26" data-name="Path 26" d="M202.735,119.075a.518.518,0,0,0,.367.155h0a.519.519,0,0,0,.366-.153l2.061-2.062a.518.518,0,0,0-.733-.734l-1.693,1.693-.677-.683a.519.519,0,0,0-.737.73Zm0,0" transform="translate(-188.486 -108.607)" fill="#757575"/>
  <path id="Path_27" data-name="Path 27" d="M145.955,248H133.518a.518.518,0,0,0,0,1.036h12.437a.518.518,0,0,0,0-1.036Zm0,0" transform="translate(-124.385 -231.935)" fill="#757575"/>
  <path id="Path_28" data-name="Path 28" d="M145.955,285H133.518a.518.518,0,0,0,0,1.036h12.437a.518.518,0,0,0,0-1.036Zm0,0" transform="translate(-124.385 -266.538)" fill="#757575"/>
</svg>
