<svg id="reminder" xmlns="http://www.w3.org/2000/svg" width="32.009" height="32.097" viewBox="0 0 32.009 32.097">
  <g id="Group_16" data-name="Group 16" transform="translate(0 0)">
    <path id="Path_30" data-name="Path 30" d="M33.355,22.88H29.413A2.2,2.2,0,0,0,27.836,21.3V15.7a.552.552,0,1,0-1.1,0v5.6a2.2,2.2,0,1,0,2.681,2.681h3.942a.552.552,0,0,0,0-1.1Zm-6.071,1.656a1.1,1.1,0,1,1,1.1-1.1A1.105,1.105,0,0,1,27.284,24.536Z" transform="translate(-11.279 -6.79)" fill="#757575"/>
    <path id="Path_31" data-name="Path 31" d="M27.737,5.389,30,7.65a.552.552,0,0,0,.78,0,4.482,4.482,0,0,0-6.339-6.339.552.552,0,0,0,0,.78l2.517,2.517-.938.938a14.866,14.866,0,0,0-19.868,0l-.938-.938L7.73,2.092a.552.552,0,0,0,0-.78A4.482,4.482,0,0,0,1.391,7.65a.552.552,0,0,0,.78,0L4.432,5.389l.925.925a14.878,14.878,0,0,0,3.177,23.17L6.863,31.155a.552.552,0,1,0,.78.78l1.9-1.9a14.868,14.868,0,0,0,13.073,0l1.9,1.9a.552.552,0,0,0,.78-.78l-1.671-1.671a14.878,14.878,0,0,0,3.177-23.17ZM30,2.092a3.385,3.385,0,0,1,.358,4.357L25.641,1.733A3.383,3.383,0,0,1,30,2.092ZM1.813,6.448A3.379,3.379,0,0,1,6.527,1.733ZM16.084,30.442a13.8,13.8,0,1,1,13.8-13.8A13.814,13.814,0,0,1,16.084,30.442Z" transform="translate(-0.08 -0.001)" fill="#757575"/>
    <path id="Path_32" data-name="Path 32" d="M28.628,8.688a.552.552,0,0,0,.552-.552V7.584a.552.552,0,1,0-1.1,0v.552A.552.552,0,0,0,28.628,8.688Z" transform="translate(-12.624 -3.151)" fill="#757575"/>
    <path id="Path_33" data-name="Path 33" d="M28.628,50.032a.552.552,0,0,0-.552.552v.552a.552.552,0,1,0,1.1,0v-.552A.551.551,0,0,0,28.628,50.032Z" transform="translate(-12.624 -22.417)" fill="#757575"/>
    <path id="Path_34" data-name="Path 34" d="M49.628,30.136h.552a.552.552,0,0,0,0-1.1h-.552a.552.552,0,1,0,0,1.1Z" transform="translate(-22.033 -13.008)" fill="#757575"/>
    <path id="Path_35" data-name="Path 35" d="M7.18,29.032H6.628a.552.552,0,0,0,0,1.1H7.18a.552.552,0,0,0,0-1.1Z" transform="translate(-2.766 -13.008)" fill="#757575"/>
    <path id="Path_36" data-name="Path 36" d="M43.478,13.637l-.39.39a.552.552,0,1,0,.78.78l.39-.39a.552.552,0,0,0-.78-.78Z" transform="translate(-19.277 -6.038)" fill="#757575"/>
    <path id="Path_37" data-name="Path 37" d="M13.072,44.043l-.39.39a.552.552,0,1,0,.78.78l.39-.39a.552.552,0,0,0-.78-.78Z" transform="translate(-5.654 -19.661)" fill="#757575"/>
    <path id="Path_38" data-name="Path 38" d="M43.868,44.043a.552.552,0,0,0-.78.78l.39.39a.552.552,0,1,0,.78-.78Z" transform="translate(-19.277 -19.661)" fill="#757575"/>
    <path id="Path_39" data-name="Path 39" d="M13.462,13.637a.552.552,0,0,0-.78.78l.39.39a.552.552,0,1,0,.78-.78Z" transform="translate(-5.654 -6.038)" fill="#757575"/>
  </g>
</svg>
