<svg id="reminder-active" xmlns="http://www.w3.org/2000/svg" width="32.009" height="32.099" viewBox="0 0 32.009 32.099">
  <g id="Group_15" data-name="Group 15" transform="translate(0)">
    <path id="Path_29" data-name="Path 29" d="M27.738,5.391,30,7.652a.552.552,0,0,0,.78,0,4.482,4.482,0,0,0-6.339-6.339.552.552,0,0,0,0,.78L26.958,4.61l-.938.938a14.867,14.867,0,0,0-19.868,0L5.214,4.61,7.732,2.093a.552.552,0,0,0,0-.78A4.482,4.482,0,0,0,1.393,7.652a.552.552,0,0,0,.78,0L4.434,5.391l.925.925a14.878,14.878,0,0,0,3.177,23.17L6.865,31.157a.552.552,0,1,0,.78.78l1.9-1.9a14.868,14.868,0,0,0,13.073,0l1.9,1.9a.552.552,0,1,0,.78-.78l-1.671-1.671a14.878,14.878,0,0,0,3.177-23.17ZM4.5,17.13H3.943a.552.552,0,1,1,0-1.1H4.5a.552.552,0,1,1,0,1.1ZM8.28,25.164l-.39.39a.552.552,0,1,1-.78-.78l.39-.39a.552.552,0,1,1,.78.78Zm0-16.392a.552.552,0,0,1-.78,0l-.39-.39a.552.552,0,0,1,.78-.78l.39.39A.551.551,0,0,1,8.28,8.772Zm7.254-4.337a.552.552,0,1,1,1.1,0v.552a.552.552,0,1,1-1.1,0Zm1.1,24.286a.552.552,0,1,1-1.1,0v-.552a.552.552,0,1,1,1.1,0ZM22.158,17.2H18.216a2.2,2.2,0,1,1-2.681-2.681v-5.6a.552.552,0,1,1,1.1,0v5.6a2.2,2.2,0,0,1,1.577,1.577h3.942a.552.552,0,0,1,0,1.1Zm2.9,8.358a.552.552,0,0,1-.78,0l-.39-.39a.552.552,0,0,1,.78-.78l.39.39A.551.551,0,0,1,25.062,25.555Zm0-17.173-.39.39a.552.552,0,0,1-.78-.78l.39-.39a.552.552,0,0,1,.78.78Zm2.615,7.644h.552a.552.552,0,1,1,0,1.1h-.552a.552.552,0,1,1,0-1.1Z" transform="translate(-0.082 0)" fill="#5b215b"/>
    <ellipse id="Ellipse_21" data-name="Ellipse 21" cx="1.104" cy="1.104" rx="1.104" ry="1.104" transform="translate(14.9 15.541)" fill="#5b215b"/>
  </g>
</svg>
